HIERARCHY
ROOT hip
{
  OFFSET 0 0 0
  CHANNELS 6 Xposition Yposition Zposition Zrotation Yrotation Xrotation
  JOINT abdomen
  {
    OFFSET 0 20.6881 -0.73152
    CHANNELS 3 Zrotation Xrotation Yrotation
    JOINT chest
    {
      OFFSET 0 11.7043 -0.48768
      CHANNELS 3 Zrotation Xrotation Yrotation
      JOINT neck
      {
        OFFSET 0 22.1894 -2.19456
        CHANNELS 3 Zrotation Xrotation Yrotation
        JOINT head
        {
          OFFSET -0.24384 7.07133 1.2192
          CHANNELS 3 Zrotation Xrotation Yrotation
          JOINT leftEye
          {
            OFFSET 4.14528 8.04674 8.04672
            CHANNELS 3 Zrotation Xrotation Yrotation
            End Site
            {
              OFFSET 1 0 0
            }
          }
          JOINT rightEye
          {
            OFFSET -3.6576 8.04674 8.04672
            CHANNELS 3 Zrotation Xrotation Yrotation
            End Site
            {
              OFFSET 1 0 0
            }
          }
        }
      }
      JOINT rCollar
      {
        OFFSET -2.68224 19.2634 -4.8768
        CHANNELS 3 Zrotation Xrotation Yrotation
        JOINT rShldr
        {
          OFFSET -8.77824 -1.95073 1.46304
          CHANNELS 3 Zrotation Xrotation Yrotation
          JOINT rForeArm
          {
            OFFSET -28.1742 -1.7115 0.48768
            CHANNELS 3 Zrotation Xrotation Yrotation
            JOINT rHand
            {
              OFFSET -22.5879 0.773209 7.07136
              CHANNELS 3 Zrotation Xrotation Yrotation
              JOINT rThumb1
              {
                OFFSET -1.2192 -0.487915 3.41376
                CHANNELS 3 Zrotation Xrotation Yrotation
                JOINT rThumb2
                {
                  OFFSET -3.37035 -0.52449 3.41376
                  CHANNELS 3 Zrotation Xrotation Yrotation
                  End Site
                  {
                    OFFSET -1.78271 -1.18214 1.43049
                  }
                }
              }
              JOINT rIndex1
              {
                OFFSET -7.75947 0.938293 5.60832
                CHANNELS 3 Zrotation Xrotation Yrotation
                JOINT rIndex2
                {
                  OFFSET -2.54057 -0.884171 1.56538
                  CHANNELS 3 Zrotation Xrotation Yrotation
                  End Site
                  {
                    OFFSET -1.62519 -0.234802 1.16502
                  }
                }
              }
              JOINT rMid1
              {
                OFFSET -8.24714 1.18213 3.41376
                CHANNELS 3 Zrotation Xrotation Yrotation
                JOINT rMid2
                {
                  OFFSET -3.10165 -0.590103 1.0647
                  CHANNELS 3 Zrotation Xrotation Yrotation
                  End Site
                  {
                    OFFSET -2.48547 -0.328903 0.83742
                  }
                }
              }
              JOINT rRing1
              {
                OFFSET -8.82822 0.546677 1.51678
                CHANNELS 3 Zrotation Xrotation Yrotation
                JOINT rRing2
                {
                  OFFSET -2.60934 -0.819778 -0.0198488
                  CHANNELS 3 Zrotation Xrotation Yrotation
                  End Site
                  {
                    OFFSET -2.33842 -0.294052 0.168128
                  }
                }
              }
              JOINT rPinky1
              {
                OFFSET -8.27202 -0.0477905 -0.4584
                CHANNELS 3 Zrotation Xrotation Yrotation
                JOINT rPinky2
                {
                  OFFSET -1.82734 -0.647385 -0.700984
                  CHANNELS 3 Zrotation Xrotation Yrotation
                  End Site
                  {
                    OFFSET -1.69225 -0.51767 -0.607171
                  }
                }
              }
            }
          }
        }
      }
      JOINT lCollar
      {
        OFFSET 2.68224 19.2634 -4.8768
        CHANNELS 3 Zrotation Xrotation Yrotation
        JOINT lShldr
        {
          OFFSET 8.77824 -1.95073 1.46304
          CHANNELS 3 Zrotation Xrotation Yrotation
          JOINT lForeArm
          {
            OFFSET 28.1742 -1.7115 0.48768
            CHANNELS 3 Zrotation Xrotation Yrotation
            JOINT lHand
            {
              OFFSET 22.5879 0.773209 7.07136
              CHANNELS 3 Zrotation Xrotation Yrotation
              JOINT lThumb1
              {
                OFFSET 1.2192 -0.487915 3.41376
                CHANNELS 3 Zrotation Xrotation Yrotation
                JOINT lThumb2
                {
                  OFFSET 3.37035 -0.52449 3.41376
                  CHANNELS 3 Zrotation Xrotation Yrotation
                  End Site
                  {
                    OFFSET 1.78271 -1.18214 1.43049
                  }
                }
              }
              JOINT lIndex1
              {
                OFFSET 7.75947 0.938293 5.60832
                CHANNELS 3 Zrotation Xrotation Yrotation
                JOINT lIndex2
                {
                  OFFSET 2.54057 -0.884171 1.56538
                  CHANNELS 3 Zrotation Xrotation Yrotation
                  End Site
                  {
                    OFFSET 1.62519 -0.234802 1.16502
                  }
                }
              }
              JOINT lMid1
              {
                OFFSET 8.24714 1.18213 3.41376
                CHANNELS 3 Zrotation Xrotation Yrotation
                JOINT lMid2
                {
                  OFFSET 3.10165 -0.590103 1.0647
                  CHANNELS 3 Zrotation Xrotation Yrotation
                  End Site
                  {
                    OFFSET 2.48547 -0.328903 0.83742
                  }
                }
              }
              JOINT lRing1
              {
                OFFSET 8.82822 0.546677 1.51678
                CHANNELS 3 Zrotation Xrotation Yrotation
                JOINT lRing2
                {
                  OFFSET 2.60934 -0.819778 -0.0198488
                  CHANNELS 3 Zrotation Xrotation Yrotation
                  End Site
                  {
                    OFFSET 2.33842 -0.294052 0.168128
                  }
                }
              }
              JOINT lPinky1
              {
                OFFSET 8.27202 -0.0477905 -0.4584
                CHANNELS 3 Zrotation Xrotation Yrotation
                JOINT lPinky2
                {
                  OFFSET 1.82734 -0.647385 -0.700984
                  CHANNELS 3 Zrotation Xrotation Yrotation
                  End Site
                  {
                    OFFSET 1.69225 -0.51767 -0.607171
                  }
                }
              }
            }
          }
        }
      }
    }
  }
  JOINT rButtock
  {
    OFFSET -8.77824 4.35084 1.2192
    CHANNELS 3 Zrotation Xrotation Yrotation
    JOINT rThigh
    {
      OFFSET 0 -1.70687 -2.19456
      CHANNELS 3 Zrotation Xrotation Yrotation
      JOINT rShin
      {
        OFFSET 0 -36.8199 0.73152
        CHANNELS 3 Zrotation Xrotation Yrotation
        JOINT rFoot
        {
          OFFSET 0.73152 -45.1104 -5.12064
          CHANNELS 3 Zrotation Xrotation Yrotation
          End Site
          {
            OFFSET -1.1221 -3.69964 12.103
          }
        }
      }
    }
  }
  JOINT lButtock
  {
    OFFSET 8.77824 4.35084 1.2192
    CHANNELS 3 Zrotation Xrotation Yrotation
    JOINT lThigh
    {
      OFFSET 0 -1.70687 -2.19456
      CHANNELS 3 Zrotation Xrotation Yrotation
      JOINT lShin
      {
        OFFSET 0 -36.8199 0.73152
        CHANNELS 3 Zrotation Xrotation Yrotation
        JOINT lFoot
        {
          OFFSET -0.73152 -45.1104 -5.12064
          CHANNELS 3 Zrotation Xrotation Yrotation
          End Site
          {
            OFFSET 1.1221 -3.69964 12.103
          }
        }
      }
    }
  }
}
MOTION
Frames:	4
Frame Time:	0.03333
22.00401288588243 37.93028076312857 -57.740387368731426 -40.761287689208984 68.2131118774414 -22.447193145751953 2.594956159591675 16.043468475341797 11.169218063354492 -0.31056421995162964 -7.650228023529053 4.652830123901367 2.112245798110962 15.45268726348877 13.53388786315918 -5.906874656677246 -22.57126808166504 28.623090744018555 0.24503616988658905 -0.36777570843696594 -2.5433690547943115 -0.485178679227829 2.4646356105804443 -0.9271995425224304 0.9838148355484009 -0.8988927602767944 -0.5585487484931946 52.93213653564453 51.741519927978516 9.938058853149414 -29.459392547607422 -36.370723724365234 74.54312133789062 -1.4991004467010498 -33.213539123535156 -3.339531421661377 0.7919887900352478 0.9280080199241638 0.014248077757656574 -0.9375672340393066 -0.8262516260147095 -0.43845248222351074 0.08128338307142258 0.15357890725135803 1.6084966659545898 7.761971473693848 5.316132545471191 0.1335105001926422 -0.275125116109848 -0.1748756766319275 -0.3612160384654999 3.9933595657348633 0.9065673351287842 1.0524308681488037 -1.467311143875122 -0.2649548053741455 0.4906354546546936 9.725066184997559 0.8128840923309326 -0.18802091479301453 -1.3326987028121948 1.3125089406967163 -2.9492709636688232 0.25390028953552246 0.33038330078125 -0.21604181826114655 0.17610298097133636 0.6500641703605652 0.5977489948272705 -6.848122596740723 -0.2669789791107178 -97.63399505615234 27.173614501953125 -29.0047550201416 -56.093505859375 -0.4824066758155823 -13.215132713317871 2.458918571472168 -0.0042420257814228535 -0.8518692255020142 -0.43556007742881775 0.8307252526283264 -1.4483318328857422 -0.5092902779579163 1.2075392007827759 0.6227360367774963 0.8060722351074219 -6.850751876831055 5.271934509277344 -1.2571544647216797 -0.7591516971588135 -0.2727864682674408 0.5612654089927673 -2.2285196781158447 0.43946540355682373 -0.7322550415992737 1.3307480812072754 1.8267585039138794 0.15264327824115753 -9.406804084777832 0.6756919622421265 -0.06460236757993698 0.3395282030105591 0.20832689106464386 1.3097991943359375 -2.3848249912261963 0.017604632303118706 0.7083818912506104 -1.491564393043518 -0.7002502679824829 0.5440503358840942 3.5637459754943848 -21.53601837158203 8.533970832824707 -3.9335129261016846 70.1924819946289 4.4019927978515625 -10.376385688781738 -18.092832565307617 -22.259592056274414 0.6160398125648499 0.9609054327011108 0.7861601114273071 13.088085174560547 -57.21350860595703 -4.583525657653809 -0.5366401672363281 42.797061920166016 -0.980349600315094 -0.2280409038066864 14.283044815063477 4.017431735992432
21.26702469554577 38.36044949215056 -58.98375585901419 -44.93001174926758 69.0066146850586 -22.79877471923828 2.1481432914733887 17.073875427246094 10.747903823852539 -0.4133230447769165 -7.4594550132751465 4.028308391571045 2.1555943489074707 15.16051959991455 14.063322067260742 -6.052369594573975 -21.842988967895508 28.866439819335938 -0.07808119803667068 -0.27495959401130676 -2.348806619644165 -0.487434983253479 2.0085511207580566 -1.0898199081420898 1.0659434795379639 -0.8285461664199829 -0.49978503584861755 49.358604431152344 52.99205780029297 12.777912139892578 -29.072166442871094 -36.280155181884766 74.93546295166016 -1.2620071172714233 -31.890684127807617 -3.0922393798828125 1.205005407333374 0.7533560991287231 -0.1422165185213089 -0.7393296360969543 -0.76612389087677 -0.37603631615638733 0.027104927226901054 0.1946975588798523 1.5066344738006592 7.674579620361328 5.2616376876831055 -0.07193828374147415 -0.2007175087928772 -0.02203521877527237 -0.44733792543411255 3.853388547897339 0.9649497270584106 1.316014289855957 -1.5400792360305786 -0.15684007108211517 0.49260789155960083 9.45316219329834 1.0063928365707397 -0.20486371219158173 -1.2942790985107422 1.2435733079910278 -2.9086217880249023 0.20174835622310638 0.3155895173549652 -0.11048504710197449 0.04665359854698181 0.5405157804489136 0.5551605224609375 -3.811675548553467 -1.9544986486434937 -98.95574188232422 28.342144012451172 -31.538928985595703 -62.327125549316406 -0.3533572852611542 -17.956436157226562 3.022442102432251 -0.15941479802131653 -0.8086578845977783 -0.6728407740592957 0.9602910280227661 -1.2984787225723267 -0.4372906982898712 1.3999866247177124 0.5987815856933594 0.9429591298103333 -6.735098838806152 5.469724178314209 -1.4684308767318726 -0.6142463684082031 -0.3231356739997864 0.7110196352005005 -2.067891836166382 0.33852776885032654 -0.9348907470703125 1.1321872472763062 1.7810051441192627 -0.03352154791355133 -9.496893882751465 0.8808524012565613 -0.2992807924747467 0.31784868240356445 0.3200657367706299 1.6171811819076538 -2.4846885204315186 -0.05904711037874222 0.6802033185958862 -1.3236664533615112 -0.7954924702644348 0.3114379644393921 4.394093990325928 -22.184900283813477 9.869351387023926 -4.216653823852539 70.25586700439453 4.792454242706299 -10.299805641174316 -18.13926887512207 -21.421756744384766 0.3295195996761322 1.1691852807998657 0.8929596543312073 9.76505184173584 -56.85261917114258 -8.16140365600586 -0.6842872500419617 40.46118927001953 -0.9355505704879761 -0.07898235321044922 14.696417808532715 3.700716257095337
20.386292185918432 38.79515688187602 -60.190025216324685 -50.3660774230957 70.44854736328125 -23.503957748413086 1.8946311473846436 17.915775299072266 10.588086128234863 -0.5931257605552673 -7.290960311889648 3.2675678730010986 2.2489013671875 14.79304313659668 14.858040809631348 -6.3446526527404785 -21.18450164794922 29.181318283081055 -0.3973386585712433 -0.12641823291778564 -2.0220630168914795 -0.49827688932418823 1.431637167930603 -1.240965485572815 1.0270814895629883 -0.6977629065513611 -0.3329211175441742 44.877593994140625 54.32796096801758 16.19738006591797 -28.544050216674805 -36.319664001464844 75.52017974853516 -1.0891329050064087 -29.787485122680664 -2.835110902786255 1.6804753541946411 0.5512077808380127 -0.3584347665309906 -0.4889717102050781 -0.7414579391479492 -0.2562488615512848 -0.06318054348230362 0.26046016812324524 1.2995529174804688 7.563310623168945 5.191885471343994 -0.3869613707065582 -0.08225278556346893 0.0792929008603096 -0.6164660453796387 3.5101616382598877 0.934358537197113 1.4473623037338257 -1.4903348684310913 -0.10225799679756165 0.40331268310546875 9.170938491821289 1.2950248718261719 -0.19861678779125214 -1.2121502161026 1.1875314712524414 -2.7003843784332275 0.31778258085250854 0.27073290944099426 -0.06475985795259476 -0.06938494741916656 0.3394005000591278 0.5055810213088989 -0.8078633546829224 -3.6658174991607666 -100.58021545410156 28.901643753051758 -34.303348541259766 -69.5835189819336 -0.17241226136684418 -22.950366973876953 3.7034995555877686 -0.29289567470550537 -0.7705907821655273 -0.7934500575065613 1.127923607826233 -1.116010308265686 -0.2593662142753601 1.576258897781372 0.5987340211868286 1.139154076576233 -6.69326639175415 5.734878063201904 -1.5624734163284302 -0.499634325504303 -0.30587342381477356 0.8591372966766357 -1.921052098274231 0.33343014121055603 -1.0607969760894775 0.8927829265594482 1.568403959274292 -0.28610941767692566 -9.644659042358398 1.0781151056289673 -0.5543109774589539 0.38575321435928345 0.4749331772327423 1.925460696220398 -2.5628244876861572 -0.1398545205593109 0.7803049087524414 -1.0518187284469604 -0.8544784188270569 0.02992245741188526 4.916011810302734 -22.30592155456543 10.546399116516113 -3.847271680831909 69.67633056640625 4.698314666748047 -10.392264366149902 -18.302202224731445 -21.141984939575195 0.15533137321472168 1.2802157402038574 0.9848108887672424 7.269867897033691 -57.18193817138672 -11.129293441772461 -0.7521916627883911 38.90154266357422 -0.8534286618232727 -0.07766429334878922 14.525933265686035 3.116683006286621
19.45307202039707 39.162177096926655 -61.36237724159906 -57.84766387939453 72.21924591064453 -24.00270652770996 1.711800456047058 18.463722229003906 10.478231430053711 -0.8575429320335388 -7.0307183265686035 2.4422402381896973 2.317141056060791 14.394180297851562 15.901741981506348 -6.809464931488037 -20.665538787841797 29.640546798706055 -0.5929653644561768 0.03959263488650322 -1.5982266664505005 -0.5027033090591431 0.8631930947303772 -1.341789722442627 0.9978041648864746 -0.49901801347732544 -0.17026294767856598 40.90138244628906 55.887718200683594 18.820798873901367 -28.00797462463379 -36.57383728027344 76.4662857055664 -1.0086824893951416 -28.202465057373047 -2.847423553466797 2.259464979171753 0.39904338121414185 -0.606029212474823 -0.21620918810367584 -0.6991634964942932 -0.15612539649009705 -0.13925348222255707 0.3786954879760742 1.0478856563568115 7.472296714782715 5.034719467163086 -0.7052830457687378 0.04149468615651131 0.16400520503520966 -0.7818764448165894 3.009993076324463 0.8025204539299011 1.459368109703064 -1.412941575050354 -0.15678918361663818 0.21421676874160767 8.953483581542969 1.6799486875534058 -0.27131369709968567 -1.1074424982070923 1.1609078645706177 -2.349069356918335 0.5515119433403015 0.16948026418685913 -0.021819056943058968 -0.27467095851898193 0.06054721027612686 0.4237865209579468 2.019974946975708 -5.508564472198486 -102.16478729248047 28.780712127685547 -36.61463165283203 -75.9113998413086 -0.03375948965549469 -26.329383850097656 4.102278709411621 -0.3453875184059143 -0.6973998546600342 -0.7632582187652588 1.2216335535049438 -0.9695195555686951 -0.036414600908756256 1.6343590021133423 0.6083831191062927 1.3889915943145752 -6.671460151672363 5.9662275314331055 -1.5553919076919556 -0.4026440382003784 -0.259870707988739 0.884770929813385 -1.7362791299819946 0.49042969942092896 -1.0879205465316772 0.7286075353622437 1.2645137310028076 -0.5358556509017944 -9.863595962524414 1.2877001762390137 -0.6686132550239563 0.4916360676288605 0.6126681566238403 2.2277116775512695 -2.533115863800049 -0.29195502400398254 0.9688209891319275 -0.7069379091262817 -0.8890876770019531 -0.3283550441265106 5.248652935028076 -22.1893310546875 10.563618659973145 -3.1297056674957275 68.75611877441406 4.422343730926514 -10.62520980834961 -18.577377319335938 -21.55500030517578 0.14335735142230988 1.2777444124221802 1.0716012716293335 4.952086925506592 -57.81424331665039 -13.827760696411133 -0.8205495476722717 37.7630729675293 -0.6358881592750549 -0.14455927908420563 13.986510276794434 2.5728673934936523
